HIERARCHY
ROOT Hips
{
    OFFSET 0.000000 97.120003 0.000000
    CHANNELS 6 Xposition Yposition Zposition Yrotation Xrotation Zrotation
    JOINT RightUpLeg
    {
        OFFSET -11.000000 -0.000000 0.000000
        CHANNELS 3 Yrotation Xrotation Zrotation
        JOINT RightLeg
        {
            OFFSET 0.000000 -45.062000 0.000000
            CHANNELS 3 Yrotation Xrotation Zrotation
            JOINT RightFoot
            {
                OFFSET 0.000000 -42.057999 0.000000
                CHANNELS 3 Yrotation Xrotation Zrotation
                End Site
                {
                    OFFSET 0.000000 -10.000000 15.120000
                }
            }
        }
    }
    JOINT LeftUpLeg
    {
        OFFSET 11.000000 -0.000000 0.000000
        CHANNELS 3 Yrotation Xrotation Zrotation
        JOINT LeftLeg
        {
            OFFSET 0.000000 -45.062000 0.000000
            CHANNELS 3 Yrotation Xrotation Zrotation
            JOINT LeftFoot
            {
                OFFSET 0.000000 -42.057999 0.000000
                CHANNELS 3 Yrotation Xrotation Zrotation
                End Site
                {
                    OFFSET 0.000000 -10.000000 15.120000
                }
            }
        }
    }
    JOINT Spine
    {
        OFFSET 0.000000 8.120000 0.000000
        CHANNELS 3 Yrotation Xrotation Zrotation
        JOINT Spine1
        {
            OFFSET 0.000000 17.980000 0.000000
            CHANNELS 3 Yrotation Xrotation Zrotation
            JOINT Spine2
            {
                OFFSET 0.000000 12.760000 0.000000
                CHANNELS 3 Yrotation Xrotation Zrotation
                JOINT Neck
                {
                    OFFSET 0.000000 19.139999 0.000000
                    CHANNELS 3 Yrotation Xrotation Zrotation
                    JOINT Neck1
                    {
                        OFFSET 0.000000 4.250000 0.000000
                        CHANNELS 3 Yrotation Xrotation Zrotation
                        JOINT Head
                        {
                            OFFSET 0.000000 4.250000 0.000000
                            CHANNELS 3 Yrotation Xrotation Zrotation
                            End Site
                            {
                                OFFSET 0.000000 19.120001 0.000000
                            }
                        }
                    }
                }
                JOINT RightShoulder
                {
                    OFFSET -2.900000 13.340000 0.000000
                    CHANNELS 3 Yrotation Xrotation Zrotation
                    JOINT RightArm
                    {
                        OFFSET -16.100000 0.000000 0.000000
                        CHANNELS 3 Yrotation Xrotation Zrotation
                        JOINT RightForeArm
                        {
                            OFFSET -28.000000 0.000000 0.000000
                            CHANNELS 3 Yrotation Xrotation Zrotation
                            JOINT RightHand
                            {
                                OFFSET -26.000000 0.000000 0.000000
                                CHANNELS 3 Yrotation Xrotation Zrotation
                                JOINT RightHandThumb1
                                {
                                    OFFSET -1.937000 -0.484000 2.518000
                                    CHANNELS 3 Yrotation Xrotation Zrotation
                                    JOINT RightHandThumb2
                                    {
                                        OFFSET -3.872000 0.000000 0.000000
                                        CHANNELS 3 Yrotation Xrotation Zrotation
                                        JOINT RightHandThumb3
                                        {
                                            OFFSET -2.690000 0.000000 0.000000
                                            CHANNELS 3 Yrotation Xrotation Zrotation
                                            End Site
                                            {
                                                OFFSET -2.537000 0.000000 0.000000
                                            }
                                        }
                                    }
                                }
                                JOINT RightInHandIndex
                                {
                                    OFFSET -3.389000 0.535000 2.080000
                                    CHANNELS 3 Yrotation Xrotation Zrotation
                                    JOINT RightHandIndex1
                                    {
                                        OFFSET -5.485000 -0.096000 1.051000
                                        CHANNELS 3 Yrotation Xrotation Zrotation
                                        JOINT RightHandIndex2
                                        {
                                            OFFSET -3.806000 0.000000 0.000000
                                            CHANNELS 3 Yrotation Xrotation Zrotation
                                            JOINT RightHandIndex3
                                            {
                                                OFFSET -2.158000 0.000000 0.000000
                                                CHANNELS 3 Yrotation Xrotation Zrotation
                                                End Site
                                                {
                                                    OFFSET -1.898000 0.000000 0.000000
                                                }
                                            }
                                        }
                                    }
                                }
                                JOINT RightInHandMiddle
                                {
                                    OFFSET -3.556000 0.544000 0.796000
                                    CHANNELS 3 Yrotation Xrotation Zrotation
                                    JOINT RightHandMiddle1
                                    {
                                        OFFSET -5.441000 -0.088000 0.330000
                                        CHANNELS 3 Yrotation Xrotation Zrotation
                                        JOINT RightHandMiddle2
                                        {
                                            OFFSET -4.153000 0.000000 0.000000
                                            CHANNELS 3 Yrotation Xrotation Zrotation
                                            JOINT RightHandMiddle3
                                            {
                                                OFFSET -2.603000 0.000000 0.000000
                                                CHANNELS 3 Yrotation Xrotation Zrotation
                                                End Site
                                                {
                                                    OFFSET -2.076000 0.000000 0.000000
                                                }
                                            }
                                        }
                                    }
                                }
                                JOINT RightInHandRing
                                {
                                    OFFSET -3.539000 0.566000 -0.136000
                                    CHANNELS 3 Yrotation Xrotation Zrotation
                                    JOINT RightHandRing1
                                    {
                                        OFFSET -4.873000 -0.023000 -0.504000
                                        CHANNELS 3 Yrotation Xrotation Zrotation
                                        JOINT RightHandRing2
                                        {
                                            OFFSET -3.619000 0.000000 0.000000
                                            CHANNELS 3 Yrotation Xrotation Zrotation
                                            JOINT RightHandRing3
                                            {
                                                OFFSET -2.511000 0.000000 0.000000
                                                CHANNELS 3 Yrotation Xrotation Zrotation
                                                End Site
                                                {
                                                    OFFSET -1.952000 0.000000 0.000000
                                                }
                                            }
                                        }
                                    }
                                }
                                JOINT RightInHandPinky
                                {
                                    OFFSET -3.324000 0.494000 -1.264000
                                    CHANNELS 3 Yrotation Xrotation Zrotation
                                    JOINT RightHandPinky1
                                    {
                                        OFFSET -4.354000 -0.023000 -1.147000
                                        CHANNELS 3 Yrotation Xrotation Zrotation
                                        JOINT RightHandPinky2
                                        {
                                            OFFSET -2.898000 0.000000 0.000000
                                            CHANNELS 3 Yrotation Xrotation Zrotation
                                            JOINT RightHandPinky3
                                            {
                                                OFFSET -1.831000 0.000000 0.000000
                                                CHANNELS 3 Yrotation Xrotation Zrotation
                                                End Site
                                                {
                                                    OFFSET -1.730000 0.000000 0.000000
                                                }
                                            }
                                        }
                                    }
                                }
                            }
                        }
                    }
                }
                JOINT LeftShoulder
                {
                    OFFSET 2.900000 13.340000 0.000000
                    CHANNELS 3 Yrotation Xrotation Zrotation
                    JOINT LeftArm
                    {
                        OFFSET 16.100000 0.000000 0.000000
                        CHANNELS 3 Yrotation Xrotation Zrotation
                        JOINT LeftForeArm
                        {
                            OFFSET 28.000000 0.000000 0.000000
                            CHANNELS 3 Yrotation Xrotation Zrotation
                            JOINT LeftHand
                            {
                                OFFSET 26.000000 0.000000 0.000000
                                CHANNELS 3 Yrotation Xrotation Zrotation
                                JOINT LeftHandThumb1
                                {
                                    OFFSET 1.937000 -0.484000 2.518000
                                    CHANNELS 3 Yrotation Xrotation Zrotation
                                    JOINT LeftHandThumb2
                                    {
                                        OFFSET 3.872000 0.000000 0.000000
                                        CHANNELS 3 Yrotation Xrotation Zrotation
                                        JOINT LeftHandThumb3
                                        {
                                            OFFSET 2.690000 0.000000 0.000000
                                            CHANNELS 3 Yrotation Xrotation Zrotation
                                            End Site
                                            {
                                                OFFSET 2.537000 0.000000 0.000000
                                            }
                                        }
                                    }
                                }
                                JOINT LeftInHandIndex
                                {
                                    OFFSET 3.389000 0.535000 2.080000
                                    CHANNELS 3 Yrotation Xrotation Zrotation
                                    JOINT LeftHandIndex1
                                    {
                                        OFFSET 5.485000 -0.096000 1.051000
                                        CHANNELS 3 Yrotation Xrotation Zrotation
                                        JOINT LeftHandIndex2
                                        {
                                            OFFSET 3.806000 0.000000 0.000000
                                            CHANNELS 3 Yrotation Xrotation Zrotation
                                            JOINT LeftHandIndex3
                                            {
                                                OFFSET 2.158000 0.000000 0.000000
                                                CHANNELS 3 Yrotation Xrotation Zrotation
                                                End Site
                                                {
                                                    OFFSET 1.898000 0.000000 0.000000
                                                }
                                            }
                                        }
                                    }
                                }
                                JOINT LeftInHandMiddle
                                {
                                    OFFSET 3.556000 0.544000 0.796000
                                    CHANNELS 3 Yrotation Xrotation Zrotation
                                    JOINT LeftHandMiddle1
                                    {
                                        OFFSET 5.441000 -0.088000 0.330000
                                        CHANNELS 3 Yrotation Xrotation Zrotation
                                        JOINT LeftHandMiddle2
                                        {
                                            OFFSET 4.153000 0.000000 0.000000
                                            CHANNELS 3 Yrotation Xrotation Zrotation
                                            JOINT LeftHandMiddle3
                                            {
                                                OFFSET 2.603000 0.000000 0.000000
                                                CHANNELS 3 Yrotation Xrotation Zrotation
                                                End Site
                                                {
                                                    OFFSET 2.076000 0.000000 0.000000
                                                }
                                            }
                                        }
                                    }
                                }
                                JOINT LeftInHandRing
                                {
                                    OFFSET 3.539000 0.566000 -0.136000
                                    CHANNELS 3 Yrotation Xrotation Zrotation
                                    JOINT LeftHandRing1
                                    {
                                        OFFSET 4.873000 -0.023000 -0.504000
                                        CHANNELS 3 Yrotation Xrotation Zrotation
                                        JOINT LeftHandRing2
                                        {
                                            OFFSET 3.619000 0.000000 0.000000
                                            CHANNELS 3 Yrotation Xrotation Zrotation
                                            JOINT LeftHandRing3
                                            {
                                                OFFSET 2.511000 0.000000 0.000000
                                                CHANNELS 3 Yrotation Xrotation Zrotation
                                                End Site
                                                {
                                                    OFFSET 1.952000 0.000000 0.000000
                                                }
                                            }
                                        }
                                    }
                                }
                                JOINT LeftInHandPinky
                                {
                                    OFFSET 3.324000 0.494000 -1.264000
                                    CHANNELS 3 Yrotation Xrotation Zrotation
                                    JOINT LeftHandPinky1
                                    {
                                        OFFSET 4.354000 -0.023000 -1.147000
                                        CHANNELS 3 Yrotation Xrotation Zrotation
                                        JOINT LeftHandPinky2
                                        {
                                            OFFSET 2.898000 0.000000 0.000000
                                            CHANNELS 3 Yrotation Xrotation Zrotation
                                            JOINT LeftHandPinky3
                                            {
                                                OFFSET 1.831000 0.000000 0.000000
                                                CHANNELS 3 Yrotation Xrotation Zrotation
                                                End Site
                                                {
                                                    OFFSET 1.730000 0.000000 0.000000
                                                }
                                            }
                                        }
                                    }
                                }
                            }
                        }
                    }
                }
            }
        }
    }
}
MOTION
Frames: 4
Frame Time: 0.010417
77.999649 97.261269 -41.908543 173.045868 -0.228140 0.519892 1.207186 6.432802 -2.739767 176.581375 -176.926117 -177.629593 4.486936 -0.989189 2.226855 2.106693 5.870707 0.835990 176.564117 -177.067825 -179.111145 5.599556 -0.580610 -3.983874 0.915069 2.534683 -0.347571 0.914974 2.490193 -0.606976 4.320317 1.884168 -0.604234 179.999985 -173.695786 177.988739 179.999954 -172.645096 177.916885 165.940567 -174.463882 -179.935257 5.090579 -1.217171 6.798015 21.081303 -5.368009 58.131557 72.620277 14.589662 -7.581159 160.830276 -162.566422 -159.013840 80.990417 18.534018 41.577686 0.000000 -0.000000 11.578774 180.000000 -179.999985 -172.288528 0.000000 -0.000000 0.000000 15.000002 -0.000005 8.522755 180.000000 179.999985 -173.026840 0.000000 0.000003 4.881209 0.000000 -0.000000 0.000000 180.000000 -179.999985 -172.074982 0.000000 -0.000000 7.925022 0.000000 -0.000000 5.278061 0.000000 -0.000000 0.000000 170.000000 -179.999985 -171.405655 180.000000 -179.999985 -171.405640 180.000000 -179.999985 -174.276169 0.000000 -0.000000 0.000000 160.000015 179.999985 -175.692459 0.000000 -0.000000 6.461295 0.000000 -0.000000 4.303225 174.711731 -177.853409 169.503296 160.083542 168.869751 110.049652 127.689651 169.969116 -179.609619 179.103821 -179.795898 162.153656 114.232773 134.653030 150.376648 0.000000 0.000000 -8.498405 0.000002 0.000003 -5.659937 0.000000 -0.000000 0.000000 165.000015 -179.999985 165.515656 180.000000 -179.999985 168.149170 0.000001 -0.000003 -8.295575 0.000000 -0.000000 0.000000 0.000002 -0.000003 -20.102026 180.000000 179.999985 159.897980 0.000000 0.000000 -13.387951 0.000000 -0.000000 0.000000 10.000001 -0.000003 -24.320175 0.000002 0.000000 -24.320171 0.000002 0.000000 -16.197239 0.000000 -0.000000 0.000000 20.000002 -0.000003 -22.752251 0.000001 -0.000002 -34.128384 180.000000 180.000000 157.270508
77.998329 97.257324 -41.946156 173.027512 -0.251471 0.515149 1.210906 6.487169 -2.739307 176.590149 -176.912933 -177.631683 4.491487 -1.014674 2.226780 2.103026 5.938088 0.834563 176.550400 -177.031357 -179.103851 5.637372 -0.590172 -3.976287 0.908429 2.486102 -0.367858 0.908331 2.442722 -0.640056 4.290666 1.853976 -0.651720 179.999985 -173.742920 178.031937 179.999954 -172.700089 177.961655 166.015686 -174.508011 -179.924271 5.038972 -1.230439 6.774351 20.796175 -5.011391 58.919453 72.504150 14.378957 -6.993154 160.879257 -162.704254 -159.217285 80.940308 18.659781 41.838097 180.000000 180.000000 -168.300766 0.000000 -0.000000 7.791687 0.000000 -0.000000 0.000000 15.000004 -0.000002 8.553185 0.000000 0.000003 6.998055 0.000000 -0.000000 4.898645 0.000000 -0.000000 0.000000 0.000003 -0.000004 7.953497 0.000003 -0.000000 7.953493 0.000003 -0.000000 5.297032 0.000000 -0.000000 0.000000 170.000000 -179.999985 -171.381485 0.000000 -0.000000 8.618516 0.000000 0.000003 5.739930 0.000000 -0.000000 0.000000 160.000015 179.999985 -175.698364 0.000003 -0.000000 6.452460 0.000000 0.000003 4.297332 174.722504 -177.848236 169.532959 160.233917 168.892365 110.051796 127.776146 169.907074 -179.651001 179.090195 -179.787292 162.146179 114.265694 134.653549 150.407547 0.000000 0.000000 -8.502952 180.000000 179.999985 174.337021 0.000000 -0.000000 0.000000 165.000000 179.999985 165.519211 180.000000 -180.000000 168.152084 0.000000 -0.000003 -8.293541 0.000000 -0.000000 0.000000 0.000002 -0.000003 -20.094906 0.000001 0.000000 -20.094908 0.000000 -0.000003 -13.383207 0.000000 -0.000000 0.000000 9.999999 0.000001 -24.329699 180.000000 -180.000000 155.670319 180.000000 180.000000 163.796417 0.000000 -0.000000 0.000000 20.000002 0.000003 -22.759995 0.000002 0.000001 -34.139996 0.000000 0.000000 -22.737238
77.996025 97.253052 -41.984241 173.008392 -0.271648 0.508363 1.216252 6.537210 -2.737947 176.596207 -176.900146 -177.631454 4.497557 -1.038798 2.224959 2.096445 6.000339 0.829955 176.538025 -176.999283 -179.091385 5.677977 -0.601447 -3.968663 0.899257 2.435805 -0.387297 0.899159 2.393542 -0.671640 4.248965 1.822059 -0.697860 179.999985 -173.789047 178.075348 179.999969 -172.753891 178.006607 166.114883 -174.551315 -179.915192 5.004823 -1.220911 6.761270 20.599745 -4.668395 59.647217 72.290070 14.120056 -6.491036 160.960419 -162.853683 -159.381470 80.920876 18.846962 42.192795 180.000000 -179.999985 -168.208084 0.000000 -0.000000 7.853425 0.000000 -0.000000 0.000000 15.000004 0.000003 8.561227 180.000000 -179.999985 -172.995361 0.000000 -0.000000 4.903247 0.000000 -0.000000 0.000000 0.000004 0.000003 7.961601 179.999985 -179.999985 -172.038406 0.000000 0.000003 5.302423 0.000000 -0.000000 0.000000 170.000000 180.000000 -171.385300 180.000000 179.999985 -171.385300 180.000000 -179.999985 -174.262604 0.000000 -0.000000 0.000000 160.000000 -180.000000 -175.769424 0.000004 0.000003 6.345855 0.000003 -0.000000 4.226345 174.746140 -177.846039 169.564316 160.396851 168.914658 110.055573 127.865059 169.833969 -179.702698 179.077774 -179.778931 162.140228 114.285988 134.649811 150.402771 180.000000 179.999985 171.483215 0.000000 0.000000 -5.672185 0.000000 -0.000000 0.000000 165.000000 -179.999985 165.521240 0.000001 -0.000007 -11.846249 180.000000 -179.999985 171.707626 0.000000 -0.000000 0.000000 0.000002 0.000000 -20.092175 180.000000 179.999985 159.907822 180.000000 -179.999985 166.618607 0.000000 -0.000000 0.000000 9.999996 0.000006 -24.334448 0.000003 0.000004 -24.334448 0.000000 0.000000 -16.206741 0.000000 -0.000000 0.000000 20.000002 0.000004 -22.763008 180.000000 -180.000000 145.855484 0.000004 -0.000001 -22.740253
77.992790 97.248421 -42.021942 172.986664 -0.290754 0.498231 1.227699 6.585264 -2.732110 176.600159 -176.887253 -177.632172 4.502947 -1.060925 2.224008 2.088862 6.056664 0.824971 176.525360 -176.975784 -179.075348 5.721160 -0.616520 -3.962093 0.888323 2.384695 -0.405132 0.888228 2.343535 -0.700503 4.198751 1.788936 -0.740848 179.999985 -173.834702 178.117828 179.999969 -172.807175 178.050598 166.236160 -174.594070 -179.908585 4.985862 -1.183635 6.759047 20.492758 -4.350977 60.299301 72.049568 13.872932 -5.967416 161.029160 -162.963745 -159.594940 80.889465 19.153313 42.560345 0.000001 0.000003 11.839520 180.000000 179.999985 -172.114883 0.000000 -0.000000 0.000000 15.000008 0.000001 8.520131 0.000000 -0.000000 6.971020 0.000003 -0.000004 4.879712 0.000000 -0.000000 0.000000 0.000003 -0.000000 7.929740 0.000000 -0.000000 7.929736 180.000000 180.000000 -174.718796 0.000000 -0.000000 0.000000 170.000000 179.999985 -171.450668 0.000000 -0.000000 8.549330 0.000000 -0.000000 5.693851 0.000000 -0.000000 0.000000 160.000015 179.999985 -175.930664 180.000000 180.000000 -173.895981 0.000002 0.000003 4.065269 174.779907 -177.847015 169.593887 160.553299 168.933411 110.060318 127.967827 169.774597 -179.742676 179.061462 -179.784622 162.134720 114.324745 134.640457 150.410645 0.000002 0.000000 -8.534198 0.000000 0.000000 -5.683775 0.000000 -0.000000 0.000000 165.000015 179.999985 165.526886 180.000000 -179.999985 168.158371 0.000001 0.000000 -8.289145 0.000000 -0.000000 0.000000 180.000000 179.999985 159.914337 0.000002 -0.000003 -20.085663 0.000000 0.000000 -13.377051 0.000000 -0.000000 0.000000 9.999999 0.000002 -24.337042 180.000000 -179.999985 155.662949 0.000000 0.000000 -16.208469 0.000000 -0.000000 0.000000 20.000004 -0.000003 -22.765902 0.000000 0.000000 -34.148849 0.000000 0.000000 -22.743134
